<?xml version="1.0" encoding="UTF-8" standalone="no"?>
<!-- Created with Inkscape (http://www.inkscape.org/) -->

<svg
   width="128"
   height="128"
   viewBox="0 0 33.866666 33.866666"
   version="1.1"
   id="svg1"
   xml:space="preserve"
   inkscape:version="1.3 (0e150ed, 2023-07-21)"
   sodipodi:docname="wadgadget.svg"
   xmlns:inkscape="http://www.inkscape.org/namespaces/inkscape"
   xmlns:sodipodi="http://sodipodi.sourceforge.net/DTD/sodipodi-0.dtd"
   xmlns:xlink="http://www.w3.org/1999/xlink"
   xmlns="http://www.w3.org/2000/svg"
   xmlns:svg="http://www.w3.org/2000/svg"><sodipodi:namedview
     id="namedview1"
     pagecolor="#ffffff"
     bordercolor="#000000"
     borderopacity="0.25"
     inkscape:showpageshadow="2"
     inkscape:pageopacity="0.0"
     inkscape:pagecheckerboard="0"
     inkscape:deskcolor="#d1d1d1"
     inkscape:document-units="mm"
     inkscape:zoom="2"
     inkscape:cx="64.25"
     inkscape:cy="60"
     inkscape:window-width="1288"
     inkscape:window-height="891"
     inkscape:window-x="0"
     inkscape:window-y="38"
     inkscape:window-maximized="0"
     inkscape:current-layer="layer1"
     showgrid="false" /><defs
     id="defs1"><linearGradient
       id="linearGradient1"
       inkscape:collect="always"><stop
         style="stop-color:#4343ff;stop-opacity:1;"
         offset="0"
         id="stop1" /><stop
         style="stop-color:#00002b;stop-opacity:1;"
         offset="1"
         id="stop2" /></linearGradient><linearGradient
       id="linearGradient42"><stop
         style="stop-color:#05a0ff;stop-opacity:1;"
         offset="0"
         id="stop65" /><stop
         style="stop-color:#008ada;stop-opacity:1;"
         offset="0.40854022"
         id="stop66" /><stop
         style="stop-color:#0061bc;stop-opacity:1;"
         offset="1"
         id="stop67" /></linearGradient><linearGradient
       id="linearGradient46"
       inkscape:collect="always"><stop
         style="stop-color:#f62201;stop-opacity:1;"
         offset="0"
         id="stop47" /><stop
         style="stop-color:#951401;stop-opacity:1;"
         offset="1"
         id="stop48" /></linearGradient><linearGradient
       id="linearGradient42-1"><stop
         style="stop-color:#ea00ea;stop-opacity:1;"
         offset="0"
         id="stop42" /><stop
         style="stop-color:#c800c8;stop-opacity:1;"
         offset="0.62523478"
         id="stop44" /><stop
         style="stop-color:#881988;stop-opacity:1;"
         offset="1"
         id="stop43" /></linearGradient><linearGradient
       id="linearGradient31"
       inkscape:collect="always"><stop
         style="stop-color:#bbbbbb;stop-opacity:1;"
         offset="0"
         id="stop32" /><stop
         style="stop-color:#616161;stop-opacity:1;"
         offset="1"
         id="stop33" /></linearGradient><linearGradient
       id="linearGradient24"
       inkscape:collect="always"><stop
         style="stop-color:#000075;stop-opacity:1;"
         offset="0"
         id="stop25" /><stop
         style="stop-color:#000099;stop-opacity:1;"
         offset="0.18117896"
         id="stop28" /><stop
         style="stop-color:#000079;stop-opacity:1;"
         offset="0.69565767"
         id="stop29" /><stop
         style="stop-color:#00009b;stop-opacity:1;"
         offset="1"
         id="stop26" /></linearGradient><linearGradient
       id="linearGradient22"
       inkscape:collect="always"><stop
         style="stop-color:#ffffff;stop-opacity:1;"
         offset="0"
         id="stop23" /><stop
         style="stop-color:#f4f2fd;stop-opacity:0;"
         offset="1"
         id="stop24" /></linearGradient><linearGradient
       id="linearGradient20"
       inkscape:collect="always"><stop
         style="stop-color:#ff0000;stop-opacity:1;"
         offset="0"
         id="stop21" /><stop
         style="stop-color:#570707;stop-opacity:1;"
         offset="1"
         id="stop22" /></linearGradient><linearGradient
       id="linearGradient17"><stop
         style="stop-color:#c6c6c6;stop-opacity:1;"
         offset="0"
         id="stop19" /><stop
         style="stop-color:#c6c6c6;stop-opacity:0;"
         offset="1"
         id="stop20" /></linearGradient><linearGradient
       id="linearGradient17-1"><stop
         style="stop-color:#ffffff;stop-opacity:1;"
         offset="0"
         id="stop17" /><stop
         style="stop-color:#d3d3d3;stop-opacity:1;"
         offset="0.18324076"
         id="stop30" /><stop
         style="stop-color:#bdbdbd;stop-opacity:1;"
         offset="0.48052788"
         id="stop31" /><stop
         style="stop-color:#696969;stop-opacity:1;"
         offset="1"
         id="stop18" /></linearGradient><linearGradient
       id="linearGradient13"
       inkscape:collect="always"><stop
         style="stop-color:#a7a7a7;stop-opacity:1;"
         offset="0"
         id="stop14" /><stop
         style="stop-color:#464646;stop-opacity:1;"
         offset="1"
         id="stop15" /></linearGradient><linearGradient
       id="linearGradient10"><stop
         style="stop-color:#8a8a8a;stop-opacity:1;"
         offset="0"
         id="stop12" /><stop
         style="stop-color:#8a8a8a;stop-opacity:0;"
         offset="1"
         id="stop13" /></linearGradient><linearGradient
       id="linearGradient10-1"><stop
         style="stop-color:#353535;stop-opacity:1;"
         offset="0"
         id="stop10" /><stop
         style="stop-color:#9f9f9f;stop-opacity:1;"
         offset="1"
         id="stop11" /></linearGradient><radialGradient
       inkscape:collect="always"
       xlink:href="#linearGradient10-1"
       id="radialGradient11"
       cx="62.902252"
       cy="147.92653"
       fx="62.902252"
       fy="147.92653"
       r="36.417107"
       gradientTransform="matrix(6.4112894e-8,0.09678091,-0.5751692,7.1796761e-6,101.68675,8.2983745)"
       gradientUnits="userSpaceOnUse" /><linearGradient
       inkscape:collect="always"
       xlink:href="#linearGradient13"
       id="linearGradient15"
       x1="77.768715"
       y1="100.99414"
       x2="85.221428"
       y2="100.99414"
       gradientUnits="userSpaceOnUse"
       gradientTransform="translate(0.28230683,11.057912)" /><linearGradient
       inkscape:collect="always"
       xlink:href="#linearGradient13"
       id="linearGradient16"
       gradientUnits="userSpaceOnUse"
       x1="77.768715"
       y1="100.99414"
       x2="85.221428"
       y2="100.99414"
       gradientTransform="translate(47.849674,12.645413)" /><radialGradient
       inkscape:collect="always"
       xlink:href="#linearGradient17-1"
       id="radialGradient18"
       cx="87.563339"
       cy="137.9001"
       fx="87.563339"
       fy="137.9001"
       r="41.025043"
       gradientTransform="matrix(0.349522,0.00515655,-0.00695872,0.47167472,-14.44791,-49.276109)"
       gradientUnits="userSpaceOnUse" /><radialGradient
       inkscape:collect="always"
       xlink:href="#linearGradient20"
       id="radialGradient27"
       gradientUnits="userSpaceOnUse"
       gradientTransform="matrix(1.7003501,1.5250745e-4,-1.5121795e-4,1.6308385,-57.062032,-54.423218)"
       cx="81.495071"
       cy="86.251518"
       fx="81.495071"
       fy="86.251518"
       r="6.7051764" /><radialGradient
       inkscape:collect="always"
       xlink:href="#linearGradient22"
       id="radialGradient28"
       gradientUnits="userSpaceOnUse"
       gradientTransform="matrix(0.44266118,-0.01053952,0.00995024,0.41791108,38.378276,52.649875)"
       cx="91.313774"
       cy="75.790665"
       fx="91.313774"
       fy="75.790665"
       r="4.7635784" /><linearGradient
       inkscape:collect="always"
       xlink:href="#linearGradient24"
       id="linearGradient28"
       x1="101.21317"
       y1="152.82265"
       x2="112.36345"
       y2="175.92395"
       gradientUnits="userSpaceOnUse"
       gradientTransform="matrix(0.28548514,0,0,0.28548514,-13.588911,-24.219071)" /><linearGradient
       inkscape:collect="always"
       xlink:href="#linearGradient31"
       id="linearGradient33"
       x1="63.689098"
       y1="104.42862"
       x2="147.56493"
       y2="189.73679"
       gradientUnits="userSpaceOnUse"
       gradientTransform="matrix(0.28548514,0,0,0.28548514,-13.588911,-24.219071)" /><radialGradient
       inkscape:collect="always"
       xlink:href="#linearGradient46"
       id="radialGradient44"
       cx="84.964867"
       cy="127.21437"
       fx="84.964867"
       fy="127.21437"
       r="11.62379"
       gradientTransform="matrix(0.22832366,0.10378498,-0.10947218,0.2408353,5.1942493,-27.357041)"
       gradientUnits="userSpaceOnUse" /><radialGradient
       inkscape:collect="always"
       xlink:href="#linearGradient42-1"
       id="radialGradient46"
       cx="105.81175"
       cy="131.78796"
       fx="105.81175"
       fy="131.78796"
       r="13.501813"
       gradientTransform="matrix(0.34506142,0.00131432,-6.3772244e-4,0.16742926,-19.808731,-8.7997906)"
       gradientUnits="userSpaceOnUse" /><radialGradient
       inkscape:collect="always"
       xlink:href="#linearGradient42"
       id="radialGradient48"
       cx="126.34575"
       cy="127.30425"
       fx="126.34575"
       fy="127.30425"
       r="11.300258"
       gradientTransform="matrix(0.26383306,-0.1090591,0.10334154,0.2500013,-24.009081,-5.9226812)"
       gradientUnits="userSpaceOnUse" /><radialGradient
       inkscape:collect="always"
       xlink:href="#linearGradient20"
       id="radialGradient58"
       gradientUnits="userSpaceOnUse"
       gradientTransform="matrix(1.7003501,1.5250745e-4,-1.5121795e-4,1.6308385,-57.062032,-54.423218)"
       cx="81.495071"
       cy="86.251518"
       fx="81.495071"
       fy="86.251518"
       r="6.7051764" /><radialGradient
       inkscape:collect="always"
       xlink:href="#linearGradient22"
       id="radialGradient59"
       gradientUnits="userSpaceOnUse"
       gradientTransform="matrix(0.44266118,-0.01053952,0.00995024,0.41791108,38.378276,52.649875)"
       cx="91.313774"
       cy="75.790665"
       fx="91.313774"
       fy="75.790665"
       r="4.7635784" /><filter
       style="color-interpolation-filters:sRGB"
       inkscape:label="Blur"
       id="filter88"
       x="-0.1012316"
       y="-0.084111192"
       width="1.2024632"
       height="1.1682224"><feGaussianBlur
         stdDeviation="0.5 0.5"
         result="blur"
         id="feGaussianBlur88" /></filter><linearGradient
       inkscape:collect="always"
       xlink:href="#linearGradient1"
       id="linearGradient2"
       x1="16.220274"
       y1="21.151525"
       x2="17.791208"
       y2="22.17416"
       gradientUnits="userSpaceOnUse" /></defs><g
     inkscape:label="Layer 1"
     inkscape:groupmode="layer"
     id="layer1"><path
       id="path80"
       style="font-weight:bold;font-size:11.2071px;font-family:Helvetica;-inkscape-font-specification:'Helvetica, Bold';text-align:center;text-anchor:middle;opacity:0.431599;stroke-width:0.0781836;filter:url(#filter88)"
       d="m 4.0770379,1.3332519 v 0.967899 0.191203 h 0.038241 c 0.043323,0.206121 0.1545838,0.392101 0.3162598,0.52865 v 0.901237 L 2.5396645,6.6202666 c 0.467495,0.426757 0.8417304,0.754759 1.1942424,1.027845 l 2.1657588,5.6451334 h 0.03772 l 0.01395,2.306836 5.0524053,-0.01137 0.0077,-2.410189 2.197799,-5.4777014 c 0.415719,-0.293969 0.800119,-0.618882 1.18443,-0.988054 L 12.416014,3.9093219 v -0.875916 c 0.230094,-0.175314 0.367515,-0.444645 0.373621,-0.732255 -0.0033,-0.366346 -0.219183,-0.698043 -0.554488,-0.852144 v -0.115755 h -1.360124 v 0.967899 0.191203 h 0.03824 c 0.0454,0.212009 0.162665,0.402219 0.332279,0.538985 v 0.875399 C 9.4460987,5.2938956 7.0734057,5.1495826 5.6748727,3.8964029 v -0.900721 c 0.198892,-0.177438 0.313769,-0.429305 0.316777,-0.694531 -0.0034,-0.366346 -0.219182,-0.698043 -0.554488,-0.852144 v -0.115755 z"
       sodipodi:nodetypes="cccccccccccccccccccccccccccccccc"
       transform="matrix(2,0,0,2,-6.3675133e-7,0.58062424)" /><g
       id="g64"
       transform="matrix(0.28548514,0,0,0.28548514,-13.588911,-24.219071)"><rect
         style="opacity:1;fill:url(#linearGradient15);stroke:none;stroke-width:3.96875"
         id="rect5"
         width="8.7104359"
         height="17.995178"
         x="77.497139"
         y="102.85438"
         ry="0" /><g
         id="g58"
         transform="matrix(1,0,0,0.94140931,0.22464876,17.694751)"><ellipse
           style="opacity:1;fill:url(#radialGradient58);fill-opacity:1;stroke:none;stroke-width:4.38953"
           id="ellipse58"
           cx="81.495071"
           cy="86.251518"
           rx="6.7051764"
           ry="7.0602312" /><rect
           style="opacity:1;fill:url(#radialGradient59);stroke:none;stroke-width:1;stroke-dasharray:none;stroke-opacity:1"
           id="rect58"
           width="9.5271568"
           height="8.6265802"
           x="74.789894"
           y="79.047935" /></g></g><rect
       style="opacity:1;fill:#000000;fill-opacity:1;stroke:#000000;stroke-width:0.285484;stroke-dasharray:none;stroke-opacity:1"
       id="rect10"
       width="52.631184"
       height="66.513779"
       x="41.325294"
       y="-12.376161" /><g
       id="g41"
       style="opacity:0.347701"
       transform="matrix(2,0,0,2,163.55747,-165.53773)"><g
         id="g36"><path
           style="opacity:1;fill:none;fill-opacity:1;stroke:#eff0bd;stroke-width:0.332105;stroke-dasharray:none;stroke-opacity:1"
           id="path35"
           sodipodi:type="arc"
           sodipodi:cx="105.75992"
           sodipodi:cy="82.768944"
           sodipodi:rx="39.874626"
           sodipodi:ry="43.045319"
           sodipodi:start="0"
           sodipodi:end="6.248657"
           sodipodi:arc-type="arc"
           d="M 145.63454,82.768944 A 39.874626,43.045319 0 0 1 106.10411,125.81266 39.874626,43.045319 0 0 1 65.891234,83.512048 39.874626,43.045319 0 0 1 104.72743,39.738058 39.874626,43.045319 0 0 1 145.61078,81.282957"
           sodipodi:open="true" /><path
           style="opacity:1;fill:none;fill-opacity:1;stroke:#eff0bd;stroke-width:0.435636;stroke-dasharray:none;stroke-opacity:1"
           id="path34"
           sodipodi:type="arc"
           sodipodi:cx="105.75992"
           sodipodi:cy="82.768944"
           sodipodi:rx="52.305386"
           sodipodi:ry="56.464512"
           sodipodi:start="0"
           sodipodi:end="6.248657"
           sodipodi:arc-type="arc"
           d="M 158.0653,82.768944 A 52.305386,56.464512 0 0 1 106.21142,139.23135 52.305386,56.464512 0 0 1 53.462327,83.743707 52.305386,56.464512 0 0 1 104.40556,26.323364 52.305386,56.464512 0 0 1 158.03413,80.819707"
           sodipodi:open="true" /><path
           style="opacity:1;fill:none;fill-opacity:1;stroke:#eff0bd;stroke-width:0.266228;stroke-dasharray:none;stroke-opacity:1"
           id="path36"
           sodipodi:type="arc"
           sodipodi:cx="105.75992"
           sodipodi:cy="82.768944"
           sodipodi:rx="31.964714"
           sodipodi:ry="34.506454"
           sodipodi:start="0"
           sodipodi:end="6.248657"
           sodipodi:arc-type="arc"
           d="M 137.72463,82.768944 A 31.964714,34.506454 0 0 1 106.03584,117.27411 31.964714,34.506454 0 0 1 73.799968,83.364639 31.964714,34.506454 0 0 1 104.93225,48.274059 31.964714,34.506454 0 0 1 137.70558,81.577731"
           sodipodi:open="true" /><path
           style="opacity:1;fill:none;fill-opacity:1;stroke:#eff0bd;stroke-width:0.499999;stroke-dasharray:none;stroke-opacity:1"
           id="path33"
           sodipodi:type="arc"
           sodipodi:cx="105.75993"
           sodipodi:cy="82.768959"
           sodipodi:rx="60.033318"
           sodipodi:ry="64.806938"
           sodipodi:start="0"
           sodipodi:end="6.248657"
           sodipodi:arc-type="arc"
           d="M 165.79325,82.768959 A 60.033318,64.806938 0 0 1 106.27814,147.57348 60.033318,64.806938 0 0 1 45.735562,83.88774 60.033318,64.806938 0 0 1 104.20547,17.98375 a 60.033318,64.806938 0 0 1 61.552,62.54798"
           sodipodi:open="true" /></g><path
         style="opacity:1;fill:none;fill-opacity:1;stroke:#eff0bd;stroke-width:0.499999;stroke-dasharray:none;stroke-opacity:1"
         d="m 74.003828,127.63585 31.756012,-44.86707 31.22098,45.30267"
         id="path38" /><path
         style="opacity:1;fill:none;fill-opacity:1;stroke:#eff0bd;stroke-width:0.499999;stroke-dasharray:none;stroke-opacity:1"
         d="M 118.71658,137.47367 105.75984,82.76878 92.906828,137.50217"
         id="path39" /><path
         style="opacity:1;fill:none;fill-opacity:1;stroke:#eff0bd;stroke-width:0.499999;stroke-dasharray:none;stroke-opacity:1"
         d="m 115.2849,83.827114 31.22098,45.302676"
         id="path40"
         sodipodi:nodetypes="cc" /><path
         style="opacity:1;fill:none;fill-opacity:1;stroke:#eff0bd;stroke-width:0.499999;stroke-dasharray:none;stroke-opacity:1"
         d="M 63.949655,129.22336 95.705637,84.356281"
         id="path41"
         sodipodi:nodetypes="cc" /></g><g
       id="g63"
       transform="matrix(0.28548514,0,0,0.28548514,-13.588911,-24.219071)"><rect
         style="opacity:1;fill:url(#linearGradient16);fill-opacity:1;stroke:none;stroke-width:3.96875"
         id="rect15"
         width="8.1989727"
         height="18.689096"
         x="125.23369"
         y="103.57703" /><g
         id="g26"
         transform="matrix(1,0,0,0.94140931,47.849673,17.694751)"><ellipse
           style="opacity:1;fill:url(#radialGradient27);fill-opacity:1;stroke:none;stroke-width:4.38953"
           id="ellipse26"
           cx="81.495071"
           cy="86.251518"
           rx="6.7051764"
           ry="7.0602312" /><rect
           style="opacity:1;fill:url(#radialGradient28);stroke:none;stroke-width:1;stroke-dasharray:none;stroke-opacity:1"
           id="rect26"
           width="9.5271568"
           height="8.6265802"
           x="74.789894"
           y="79.047935" /></g></g><path
       style="fill:url(#radialGradient11);stroke:none;stroke-width:1.13302"
       d="M 11.471947,25.997305 6.207436,12.277569 27.000521,12.547024 21.599505,26.007834 Z"
       id="path2"
       sodipodi:nodetypes="ccccc" /><path
       style="fill:url(#radialGradient18);stroke:url(#linearGradient33);stroke-width:0.142743;stroke-dasharray:none"
       d="m 10.991033,7.1774114 c 2.800849,2.5383654 7.588476,2.8342446 11.203954,0.024837 l 2.273441,-0.024038 3.991213,5.6582926 c -1.911003,1.835721 -3.802502,3.142912 -6.736667,4.238127 L 21.679798,30.587895 11.574889,30.611134 11.490783,17.0198 C 8.6084679,15.984454 7.4329691,15.099113 4.751858,12.651637 L 8.5727471,7.2022514 Z"
       id="path1"
       sodipodi:nodetypes="ccccccccccc" /><rect
       style="fill:url(#linearGradient28);fill-opacity:1;stroke:url(#linearGradient2);stroke-width:0.5;stroke-dasharray:none;stroke-opacity:1"
       id="rect9"
       width="5.3759809"
       height="9.255455"
       x="13.916002"
       y="17.911657" /><path
       style="fill:url(#radialGradient48);stroke:#000000;stroke-width:0.285484;stroke-dasharray:none;stroke-opacity:1"
       d="m 23.421419,9.2515534 c -1.20445,1.0025776 -2.64126,1.5906556 -3.99797,2.0629216 l 0.87946,3.713142 c 2.12581,-0.63611 3.99698,-1.6475 5.21417,-2.684188 z"
       id="path9"
       sodipodi:nodetypes="ccccc" /><path
       style="font-weight:bold;font-size:11.2071px;font-family:Helvetica;-inkscape-font-specification:'Helvetica, Bold';text-align:center;text-anchor:middle;stroke-width:0.156367"
       d="m 22.962229,12.978131 -0.97671,0.476376 -0.92152,-1.889344 0.97673,-0.47639 q 0.21197,-0.10016 0.37071,-0.13 0.27029,-0.05094 0.50298,0.0514 0.1872,0.08328 0.3103,0.226296 0.12312,0.14312 0.19562,0.29175 0.18382,0.376828 0.12984,0.726828 -0.0742,0.472532 -0.58792,0.723094 z m -0.3342,-1.579202 q -0.18424,-0.10048 -0.50725,0.05704 l -0.43683,0.213064 0.60141,1.233078 0.43683,-0.213064 q 0.33533,-0.16352 0.33318,-0.50364 -10e-4,-0.18652 -0.10344,-0.395438 -0.14062,-0.288406 -0.32396,-0.390984 z"
       id="text56"
       aria-label="D" /><path
       style="fill:url(#radialGradient46);stroke:#000000;stroke-width:0.285484;stroke-dasharray:none;stroke-opacity:1"
       d="m 20.302909,15.027617 c -2.34802,0.662468 -5.10326,0.652108 -7.3683,0.0078 l 0.88004,-3.711344 c 2.12318,0.586766 3.71482,0.422032 5.6088,-0.0094 z"
       id="path8"
       sodipodi:nodetypes="ccccc" /><path
       style="font-weight:bold;font-size:11.2071px;font-family:Helvetica;-inkscape-font-specification:'Helvetica, Bold';text-align:center;text-anchor:middle;stroke-width:0.156367"
       d="m 17.080639,14.073445 h -0.92927 l -0.17454,0.432124 h -0.55106 l 0.90017,-2.10211 h 0.59555 l 0.89333,2.10211 h -0.5716 z m -0.14718,-0.362236 -0.31489,-0.82714 -0.32516,0.82714 z"
       id="text57"
       aria-label="A" /><path
       style="fill:url(#radialGradient44);stroke:#000000;stroke-width:0.285484;stroke-dasharray:none;stroke-opacity:1"
       d="m 9.6843693,9.1866314 c 1.4388897,1.0462496 2.5649697,1.7273596 4.1302797,2.1377816 l -0.88004,3.711344 C 10.963249,14.512679 8.6190093,13.209445 7.5380793,12.219069 Z"
       id="path7"
       sodipodi:nodetypes="ccccc" /><path
       style="font-weight:bold;font-size:11.2071px;font-family:Helvetica;-inkscape-font-specification:'Helvetica, Bold';text-align:center;text-anchor:middle;stroke-width:0.156367"
       d="m 12.209899,11.660773 0.47727,0.243186 -1.58713,1.550548 -0.44829,-0.228406 0.28667,-1.233626 0.10516,-0.402546 -0.26381,0.321734 -0.8295197,0.957046 -0.43611,-0.222202 0.31697,-2.19775 0.4986097,0.254062 -0.24909,1.223954 -0.0881,0.331234 0.2144797,-0.258844 0.8028,-0.949828 0.49556,0.2525 -0.27959,1.208422 -0.0836,0.333562 0.21495,-0.252218 z"
       id="text58"
       aria-label="W" /><g
       id="g71"
       transform="matrix(0.28548514,0,0,0.28548514,-183.91169,19.571794)"><g
         id="g70"
         transform="matrix(1,0,0,0.94140931,47.849673,17.694751)" /></g><g
       id="g73"
       transform="matrix(0.28548514,0,0,0.28548514,-183.91169,19.571794)"><g
         id="g72"
         transform="matrix(1,0,0,0.94140931,0.22464876,17.694751)" /></g><g
       id="g74"
       transform="matrix(0.28548514,0,0,0.28548514,-183.91169,19.571794)" /></g></svg>
